<svg xmlns="http://www.w3.org/2000/svg" fill="none" viewBox="0 0 24 24" id="Notification-Important-Fill--Streamline-Outlined-Fill-Material" height="24" width="24"><desc>Notification Important Fill Streamline Icon: https://streamlinehq.com</desc><path fill="#ff237e" d="M4 19v-1.5h2V9.9c0 -1.4 0.4125 -2.65415 1.2375 -3.7625C8.0625 5.02915 9.15 4.333335 10.5 4.05V3.5c0 -0.416665 0.14585 -0.770835 0.4375 -1.0625C11.22915 2.145835 11.58335 2 12 2c0.41665 0 0.77085 0.145835 1.0625 0.4375C13.35415 2.729165 13.5 3.083335 13.5 3.5v0.55c1.35 0.283335 2.4375 0.97915 3.2625 2.0875C17.5875 7.24585 18 8.5 18 9.9V17.5h2v1.5H4Zm8 3c-0.55 0 -1.02085 -0.19585 -1.4125 -0.5875C10.19585 21.02085 10 20.55 10 20h4c0 0.55 -0.19585 1.02085 -0.5875 1.4125C13.02085 21.80415 12.55 22 12 22Zm-0.75 -8.65h1.5V8h-1.5v5.35Zm0.7495 2.65c0.23365 0 0.42965 -0.079 0.588 -0.237 0.15835 -0.158 0.2375 -0.35385 0.2375 -0.5875 0 -0.23365 -0.079 -0.42965 -0.237 -0.588 -0.158 -0.15835 -0.35385 -0.2375 -0.5875 -0.2375 -0.23365 0 -0.42965 0.079 -0.588 0.237 -0.15835 0.158 -0.2375 0.35385 -0.2375 0.5875 0 0.23365 0.079 0.42965 0.237 0.588 0.158 0.15835 0.35385 0.2375 0.5875 0.2375Z" stroke-width="0.5"></path></svg>